<svg xmlns="http://www.w3.org/2000/svg" viewBox="0 0 24 24" fill="currentColor"><path d="M12 .5C5.65.5.5 5.65.5 12c0 5.08 3.29 9.39 7.86 10.91.57.1.78-.25.78-.56 0-.28-.01-1.02-.01-2-3.2.7-3.88-1.39-3.88-1.39-.53-1.34-1.3-1.7-1.3-1.7-1.06-.72.08-.71.08-.71 1.18.08 1.8 1.21 1.8 1.21 1.04 1.78 2.73 1.27 3.4.97.1-.75.41-1.27.75-1.56-2.56-.29-5.26-1.28-5.26-5.71 0-1.26.45-2.29 1.19-3.1-.12-.29-.52-1.45.11-3.02 0 0 .97-.31 3.19 1.18a11.07 11.07 0 015.81 0c2.22-1.49 3.19-1.18 3.19-1.18.63 1.57.23 2.73.11 3.02.74.81 1.19 1.84 1.19 3.1 0 4.44-2.7 5.42-5.28 5.7.42.36.8 1.08.8 2.18 0 1.57-.01 2.83-.01 3.22 0 .31.21.67.79.56C20.71 21.39 24 17.08 24 12c0-6.35-5.15-11.5-12-11.5z"/></svg>